# xmcd CD database file generated by Grip 3.2.0
# 
# Track frame offsets:
#       150
#       19452
#       40540
#       59787
# 
# Disc length: 1075 seconds
# 
# Revision: 1
# Processed by: cddbd v1.5.1PL2 Copyright (c) Steve Scherf et al.
# Submitted via: Grip 3.2.0
# 
DISCID=32043104
DTITLE=伴都美子 - Flower
DYEAR=2006
DGENRE=Pop
TTITLE0=Flower
TTITLE1=Brave
TTITLE2=Flower（instrumental）
TTITLE3=Brave（instrumental）
EXTD=CD Single
EXTT0=
EXTT1=
EXTT2=
EXTT3=
PLAYORDER=
